<?xml version="1.0" encoding="UTF-8"?>
<svg id="Layer_2" data-name="Layer 2" xmlns="http://www.w3.org/2000/svg" viewBox="0 0 244 296.5">
  <defs>
    <style>
      .cls-1 {
        fill: #673aff;
      }

      .cls-1, .cls-2 {
        fill-rule: evenodd;
      }

      .cls-2, .cls-3 {
        fill: #fff;
      }
    </style>
  </defs>
  <g id="Layer_1-2" data-name="Layer 1">
    <g>
      <path class="cls-1" d="M244,47.25v102c0,84-56,106-115,145-4,3-10,3-14,0C56,255.25,0,233.25,0,149.25V47.25c0-7,5-12,11-13C49,30.25,82,21.25,116,2.25c4-3,8-3,12,0,34,19,67,28,105,32,6,1,11,6,11,13Z"/>
      <path class="cls-2" d="M156.74,168.77l-43.11,43.11c-3.17,3.17-7.61,3.17-10.14.63l-16.48-16.48c-6.34-6.97,3.17-16.48,10.14-10.14l11.41,11.41,38.04-38.67c6.97-6.34,17.12,3.17,10.14,10.14Z"/>
      <path class="cls-3" d="M122.02,274.85c-2.34,0-4.68-.7-6.55-2.1-6.68-4.41-13.4-8.62-19.89-12.69-41.82-26.2-77.95-48.83-77.95-110.96V62.67c0-6.07,4.18-11,10.16-12,34.36-3.62,61.66-11.93,88.58-26.97,3.68-2.74,7.57-2.73,11.26,0,26.92,15.03,54.23,23.35,88.52,26.96,6.04,1,10.22,5.94,10.22,12.01v86.42c0,62.13-36.12,84.76-77.94,110.96-6.5,4.07-13.21,8.28-19.94,12.72-1.83,1.38-4.15,2.06-6.47,2.06ZM122,23.65c-1.49,0-2.97.57-4.48,1.7l-.11.07c-27.19,15.19-54.74,23.59-89.35,27.23-4.94.83-8.42,4.95-8.42,10.02v86.42c0,61.03,35.69,83.38,77.01,109.27,6.51,4.08,13.23,8.29,19.98,12.75,3.09,2.31,7.67,2.31,10.71.03,6.8-4.49,13.52-8.71,20.03-12.79,41.32-25.89,77.01-48.24,77.01-109.27V62.67c0-5.07-3.49-9.2-8.48-10.03-34.54-3.63-62.1-12.03-89.29-27.23l-.11-.07c-1.51-1.13-3-1.7-4.48-1.7Z"/>
      <g>
        <path class="cls-3" d="M58.2,95.01h9.82v3.15h-13.73v-18.71h13.59v3.15h-9.68v4.56h8.75v2.98h-8.75v4.87Z"/>
        <path class="cls-3" d="M71.28,90.82v-11.37h3.91v11.37c0,2.87,1.46,4.59,3.91,4.59h.23c2.42,0,3.83-1.72,3.83-4.59v-11.37h3.91v11.37c0,4.81-2.81,7.68-7.88,7.68s-7.91-2.87-7.91-7.68Z"/>
        <path class="cls-3" d="M111.55,98.16l-1.69-4.59h-7.06l-1.63,4.59h-4.02l6.64-18.71h4.84l6.98,18.71h-4.05ZM103.58,90.79h5.43l-1.91-5.29c-.31-.93-.51-1.58-.68-2.5h-.45c-.11.93-.31,1.58-.59,2.5l-1.8,5.29Z"/>
        <path class="cls-3" d="M117.71,98.16v-18.71h3.91v18.71h-3.91Z"/>
        <path class="cls-3" d="M146.13,98.16l-1.69-4.59h-7.06l-1.63,4.59h-4.02l6.64-18.71h4.84l6.98,18.71h-4.05ZM138.16,90.79h5.43l-1.91-5.29c-.31-.93-.51-1.58-.67-2.5h-.45c-.11.93-.31,1.58-.59,2.5l-1.8,5.29Z"/>
        <path class="cls-3" d="M167.68,91.58c-.39,3.77-3.24,6.92-8.38,6.92-5.6,0-8.92-3.6-8.92-9.65s3.43-9.74,8.92-9.74c4.84,0,7.79,2.76,8.38,6.98h-3.94c-.45-2.39-2-3.88-4.36-3.88h-.23c-3.04,0-4.76,2.5-4.76,6.64s1.77,6.56,4.76,6.56h.2c2.59,0,4.08-1.86,4.36-3.83h3.97Z"/>
        <path class="cls-3" d="M184.79,79.45v3.15h-5.94v15.56h-3.91v-15.56h-5.97v-3.15h15.81Z"/>
        <path class="cls-3" d="M78.09,108.87h8.89c3.69,0,6.53,1.6,6.53,5.15,0,2.56-1.83,4.33-3.91,4.45v.45c2.45.06,3.49,1.35,3.49,3.88,0,2.11.45,3.6,1.13,4.64v.14h-4.14c-.45-.99-.73-2.22-.73-4.08,0-2.25-.9-3.18-3.24-3.18h-4.16v7.26h-3.85v-18.71ZM86.48,117.45c1.94,0,3.01-.93,3.01-2.81s-1.07-2.7-3.01-2.7h-4.53v5.51h4.53Z"/>
        <path class="cls-3" d="M101.3,124.43h9.82v3.15h-13.73v-18.71h13.59v3.15h-9.68v4.56h8.75v2.98h-8.75v4.87Z"/>
        <path class="cls-3" d="M127.05,127.58l-1.69-4.59h-7.06l-1.63,4.59h-4.02l6.64-18.71h4.84l6.98,18.71h-4.05ZM119.09,120.21h5.43l-1.91-5.29c-.31-.93-.51-1.58-.67-2.5h-.45c-.11.93-.31,1.58-.59,2.5l-1.8,5.29Z"/>
        <path class="cls-3" d="M133.21,108.87h7.57c5.68,0,9.48,3.55,9.48,9.29s-3.8,9.43-9.51,9.43h-7.54v-18.71ZM140.3,124.43c3.88,0,5.88-2.14,5.88-6.27s-1.94-6.13-5.85-6.13h-3.21v12.41h3.18Z"/>
        <path class="cls-3" d="M156.74,120.15l-6.81-11.28h4.16l2.81,5.07c.56,1.01,1.1,2.14,1.55,3.35h.42c.48-1.21,1.01-2.36,1.58-3.35l2.81-5.07h4.14l-6.75,11.28v7.43h-3.91v-7.43Z"/>
      </g>
    </g>
  </g>
</svg>