<svg viewBox="0 0 500 241.004" xmlns="http://www.w3.org/2000/svg"><path d="m500 222.258c0 10.5-6.99 19.017-15.612 19.017h-468.775c-8.623 0-15.613-8.517-15.613-19.017v-203.241c0-10.503 6.99-19.017 15.613-19.017h468.775c8.622 0 15.612 8.514 15.612 19.017z" fill="#0f32aa"/><g fill="#ffcd00"><path d="m121.504 50.006 8.987 5.489-2.443-10.242 7.997-6.85-10.496-.842-4.045-9.722-4.043 9.722-10.496.842 7.996 6.85-2.442 10.242z"/><path d="m121.504 207.946 8.987 5.49-2.443-10.243 7.997-6.85-10.496-.842-4.045-9.724-4.043 9.724-10.496.842 7.996 6.85-2.443 10.243z"/><path d="m200.318 129.181 8.986 5.489-2.443-10.244 7.999-6.85-10.497-.842-4.045-9.723-4.043 9.723-10.499.842 8 6.85-2.444 10.244z"/><path d="m42.38 129.181 8.986 5.489-2.444-10.244 7.998-6.85-10.496-.842-4.044-9.723-4.043 9.723-10.497.842 7.997 6.85-2.443 10.244z"/><path d="m160.024 60.936 8.985 5.489-2.443-10.243 7.997-6.85-10.495-.841-4.044-9.723-4.045 9.723-10.496.841 7.997 6.85-2.445 10.243z"/><path d="m81.676 60.473 8.486 5.183-2.307-9.674 7.552-6.468-9.911-.796-3.82-9.182-3.819 9.182-9.914.796 7.554 6.468-2.309 9.674z"/><path d="m190.023 89.402 8.988 5.489-2.443-10.242 7.997-6.851-10.496-.842-4.046-9.721-4.042 9.721-10.497.842 7.997 6.851-2.442 10.242z"/><path d="m53.539 89.402 8.987 5.489-2.445-10.242 7.999-6.851-10.498-.842-4.043-9.721-4.043 9.721-10.496.842 7.996 6.851-2.443 10.242z"/><path d="m160.024 198.221 8.985 5.489-2.443-10.244 7.997-6.85-10.495-.841-4.044-9.724-4.045 9.724-10.495.841 7.996 6.85-2.442 10.244z"/><path d="m81.986 198.221 8.986 5.489-2.442-10.244 7.997-6.85-10.497-.843-4.044-9.722-4.043 9.722-10.496.843 7.996 6.85-2.442 10.244z"/><path d="m190.023 168.995 8.988 5.489-2.443-10.241 7.997-6.851-10.496-.842-4.046-9.723-4.042 9.723-10.497.842 7.997 6.851-2.442 10.241z"/><path d="m53.372 168.995 8.987 5.489-2.445-10.241 7.998-6.851-10.498-.842-4.042-9.723-4.044 9.723-10.496.842 7.997 6.851-2.445 10.241z"/></g><g fill="#fff"><path d="m103.343 108.262c1.754.294 3.783.631 6.061.928v-11.409a11.67 11.67 0 1 1 23.339 0v11.219c1.429-.228 2.733-.466 3.941-.692 1.814-.336 3.461-.638 5.066-.8v-9.727a20.678 20.678 0 1 0 -41.356 0v10c.899.138 1.876.301 2.949.481z"/><path d="m145.465 111.912c-.385-.035-.768-.051-1.163-.051-5.085 0-10.952 2.57-23.512 2.57-11.76 0-19.884-2.466-23.571-2.466a4.99 4.99 0 0 0 -1.044.095 7.2 7.2 0 0 0 -5.613 7.025v33.434a7.208 7.208 0 0 0 7.206 7.209h47.045a7.21 7.21 0 0 0 7.209-7.209v-33.434a7.2 7.2 0 0 0 -6.557-7.173zm-28.31 37.188-12.568-12.566 5.459-5.417 6.77 6.77 15.4-15.4 5.784 5.777z"/><path d="m240.881 120.89v-47.281h16.719c13.851 0 22.44 8.865 22.44 23.64s-8.589 23.641-22.44 23.641zm10.712-38.047v28.813h5.541c7.849 0 12.1-4.064 12.1-14.407s-4.248-14.406-12.189-14.406z"/><path d="m303.669 81.92c-4.155 0-7.11 1.754-7.11 4.433 0 2.955 3.786 4.155 8.865 6l1.293.554c8.865 3.14 14.129 7.018 14.129 14.683 0 8.958-7.2 13.944-17.454 13.944-9.419 0-18.654-4.8-18.654-15.975h10.343c.185 4.617 3.324 7.11 8.311 7.11s7.111-2.493 7.111-4.986c0-2.863-2.493-4.895-9.789-7.2l-.924-.278c-7.849-2.4-13.667-6.925-13.667-13.944 0-7.942 7.388-13.3 17.546-13.3s17.177 5.726 17.177 14.684h-10.159c-.187-3.509-2.401-5.725-7.018-5.725z"/><path d="m367.011 103.437c0 10.9-8.773 18.1-19.577 18.1-11.914 0-20.871-8.68-20.871-24.194 0-15.606 8.866-24.38 20.686-24.38 9.05 0 16.622 5.172 19.577 14.776l-10.805 1.477a8.642 8.642 0 0 0 -8.772-6.648c-5.633 0-9.881 4.155-9.881 14.775s4.34 14.59 10.066 14.59c5.079 0 9.142-3.14 9.142-8.5h-9.142v-7.85h19.577z"/><path d="m394.707 107.5h.554l11.639-33.891h11.267l-17.458 47.281h-11.45l-17.454-47.281h11.266z"/><path d="m438.841 121.536c-11.821 0-20.87-8.68-20.87-24.194 0-15.606 9.049-24.38 20.87-24.38 11.727 0 20.685 8.774 20.685 24.38 0 15.514-8.958 24.194-20.685 24.194zm0-38.969c-5.818 0-10.066 4.155-10.066 14.775s4.248 14.59 10.066 14.59 9.881-3.971 9.881-14.59-4.064-14.775-9.881-14.775z"/><path d="m248.1 154.93-2.54 2.8v8.164h-4.92v-32.723h4.921v18.292h.4l8.866-10.112h5.9l-9.362 10.464 10.176 14.075h-5.527z"/><path d="m262.821 153.7c0-7.574 4.426-12.669 11.264-12.669 6.821 0 11.263 5.095 11.263 12.669 0 7.556-4.442 12.684-11.263 12.684-6.838.001-11.264-5.127-11.264-12.684zm17.734 0c0-4.65-1.981-8.5-6.47-8.5-4.506 0-6.471 3.85-6.471 8.5 0 4.665 1.965 8.5 6.471 8.5 4.489 0 6.47-3.834 6.47-8.5z"/><path d="m295.324 165.89h-4.924v-24.539h4.73v3.658h.255a7.716 7.716 0 0 1 7.061-3.977c4.458 0 8.021 2.811 8.021 9.345v15.513h-4.906v-15.257c0-3.275-2.012-5.256-4.776-5.256-2.8 0-5.464 2.237-5.464 6.47z"/><path d="m318.385 145.377h-3.659v-4.026h3.659v-1.693c0-4.633 3.37-6.934 7.268-6.934a11.441 11.441 0 0 1 4.027.655l-1.119 3.962a6.627 6.627 0 0 0 -2.109-.367c-2.236 0-3.147 1.118-3.147 3.291v1.086h5.195v4.026h-5.192v20.513h-4.92z"/><path d="m331.217 153.7c0-7.574 4.426-12.669 11.263-12.669 6.822 0 11.263 5.095 11.263 12.669 0 7.556-4.441 12.684-11.263 12.684-6.837.001-11.263-5.127-11.263-12.684zm17.733 0c0-4.65-1.98-8.5-6.47-8.5s-6.47 3.85-6.47 8.5c0 4.665 1.965 8.5 6.47 8.5s6.47-3.834 6.47-8.5z"/><path d="m371.643 146.24a4.826 4.826 0 0 0 -2.189-.512c-3.515 0-5.7 3.243-5.735 6.279v13.883h-4.919v-24.539h4.857v3.866h.287a6.31 6.31 0 0 1 5.959-4.233 7.061 7.061 0 0 1 3.324.862z"/><path d="m395.787 165.89h-4.872v-15.816c0-3.355-1.646-4.7-4.105-4.7-2.494 0-4.778 2.045-4.778 5.608v14.9h-4.921v-24.531h4.858v3.658h.239a7.17 7.17 0 0 1 6.391-3.977 6.646 6.646 0 0 1 6.214 4.089h.255a7.789 7.789 0 0 1 7.03-4.089c4.122 0 7.445 2.683 7.445 9.042v15.816h-4.921v-15.9c0-3.514-2.3-4.616-4.249-4.616-2.892 0-4.586 1.965-4.586 5.176z"/></g></svg>